<svg id="bc983094-4fe2-4bfc-a677-1ea7452e49ae" data-name="圖層 1" xmlns="http://www.w3.org/2000/svg" xmlns:xlink="http://www.w3.org/1999/xlink" viewBox="0 0 465 90"><defs><clipPath id="a299231b-afe6-4d40-a106-805414850185"><rect x="3.88" y="3.33" width="457.24" height="83.35" style="fill:none"/></clipPath></defs><g style="clip-path:url(#a299231b-afe6-4d40-a106-805414850185)"><path d="M45.55,3.33h0A41.67,41.67,0,1,1,3.88,45,41.79,41.79,0,0,1,45.55,3.33" style="fill:#fff"/><path d="M45.6,26.32,38.35,13.6H22.41l1.53,2.19A24.78,24.78,0,0,0,45.6,26.32Z" style="fill:#fabf13"/><polygon points="53.04 39.38 33.86 72.58 18.93 72.58 45.63 26.37 53.04 39.38" style="fill:#3ab483"/><polygon points="72.18 72.58 57.39 72.58 45.85 52.45 60.64 52.45 72.18 72.58" style="fill:#427bbf"/><rect x="42.39" y="65.94" width="6.62" height="6.62" style="fill:#427bbf"/><path d="M110.89,33.82a22.78,22.78,0,0,0-2-1.42,24.17,24.17,0,0,0-2.62-1.51c-1.06-.5-1.23-1.21-.48-2.13a1.45,1.45,0,0,1,1.94-.48A28.91,28.91,0,0,1,113,31.42a1.2,1.2,0,0,1,.53.89,1.9,1.9,0,0,1-.44,1.06c-.68,1-1.42,1.12-2.21.45m-3.73,20.56a2.23,2.23,0,0,1-.88-1,1.4,1.4,0,0,1,.22-1.18c.85-1.53,1.76-3.29,2.7-5.27,1.18-2.48,2.1-4.51,2.75-6.07.44-1.07,1.15-1.24,2.13-.53a1.49,1.49,0,0,1,.62,1.9q-2.4,5.89-5.23,11.61c-.48,1-1.24,1.17-2.31.49m5.76-32.18c-.68-.53-1.35-1-2-1.46-.89-.62-1.75-1.17-2.58-1.64s-1.1-1.21-.39-2.13a1.38,1.38,0,0,1,1.9-.44,30.24,30.24,0,0,1,5.32,3.41q.89.79,0,1.95c-.74.95-1.48,1.05-2.22.31M132,55.93a1.75,1.75,0,0,1-1.77-1.15c-.36-1.15.29-1.67,1.94-1.55.77,0,1.64,0,2.62,0a1.72,1.72,0,0,0,1.55-.64,7.41,7.41,0,0,0,.93-3H121.57l-.09.71a1.42,1.42,0,0,1-1.73,1.38c-1.06-.09-1.52-.6-1.37-1.51q.93-5.9,1.41-10.24h-3.05a1.27,1.27,0,0,1-1.42-1.46,1.25,1.25,0,0,1,1.42-1.42h3.41c.12-1.18.3-2.91.53-5.19.09-.73.15-1.28.18-1.64a2.37,2.37,0,0,1,.82-1.62,2.65,2.65,0,0,1,1.79-.64H138.9q2.57,0,2.52,3.33c0,.71-.07,1.64-.13,2.79q0,2.09-.09,3h2.44a1.25,1.25,0,0,1,1.42,1.42A1.27,1.27,0,0,1,143.64,40h-2.57c-.15,3-.3,5.23-.44,6.83h2.57a1.42,1.42,0,1,1,0,2.83h-2.84c-.29,2.37-.74,3.92-1.33,4.66a4,4,0,0,1-3,1.55,35,35,0,0,1-4,0M117.78,31.76a1.77,1.77,0,0,1-1.24-.54,1.88,1.88,0,0,1-.8-1.13,1.72,1.72,0,0,1,.55-1.24,36.85,36.85,0,0,0,5.63-11.75c.33-1.12,1-1.54,2-1.28a1.42,1.42,0,0,1,1.15,2c-.29.91-.68,2-1.15,3.15h19.15a1.33,1.33,0,0,1,1.51,1.5A1.34,1.34,0,0,1,143.11,24H122.72a39,39,0,0,1-3.85,6.91,1.87,1.87,0,0,1-1.09.83M122,46.85h15.69q.21-2.26.44-6.83H122.76c-.11,1.3-.34,3.19-.66,5.67-.06.51-.1.89-.13,1.16m1.1-9.71h9.58a22.17,22.17,0,0,0-4.43-3.72c-.8-.51-.88-1.08-.23-1.73a1.18,1.18,0,0,1,1.55-.23,28.47,28.47,0,0,1,3.42,2.4,1.94,1.94,0,0,1,.64,1.51,2.51,2.51,0,0,1-.78,1.68l-.08.09h5.49c.06-1.18.12-3,.18-5.36,0-.68-.27-1-.89-1H123.74c-.09.85-.22,2.17-.4,3.94-.12,1.09-.21,1.91-.27,2.44m8.29,8.69a19.68,19.68,0,0,0-1.77-1.6,27,27,0,0,0-2.22-1.68c-.76-.5-.78-1.08,0-1.73a1.1,1.1,0,0,1,1.51-.13,30.11,30.11,0,0,1,4.47,3.45,1,1,0,0,1,.4.8,1.62,1.62,0,0,1-.53.84c-.65.65-1.26.67-1.82,0" style="fill:#fff"/><path d="M154.32,46.85a2.52,2.52,0,0,1-1.86-.71,2.56,2.56,0,0,1-.71-1.87V25.53a1.08,1.08,0,0,1,1.24-1.2,1.06,1.06,0,0,1,1.2,1.2V43.21a.82.82,0,0,0,.93.93H157V17.33a1.33,1.33,0,1,1,2.66,0V44.14h2.12a.82.82,0,0,0,.93-.93V25.48c0-.77.4-1.15,1.2-1.15a1,1,0,0,1,1.15,1.15V44.27a2.44,2.44,0,0,1-2.57,2.58h-8.2Zm33,8.46q-6.17-4.22-9.13-13.65Q175.65,50.17,167,55.05a3.13,3.13,0,0,1-1.37.35,1.51,1.51,0,0,1-1.2-.53,1.22,1.22,0,0,1-.17-1.51,3.37,3.37,0,0,1,1.41-1.19,19.07,19.07,0,0,0,9.84-12.77h-8.07a1.33,1.33,0,0,1-1.5-1.51,1.33,1.33,0,0,1,1.5-1.5h8.6c.15-1.63.23-3.52.23-5.68V24.82h-7.89c-1,0-1.46-.5-1.46-1.51a1.29,1.29,0,0,1,1.46-1.46h7.89V17.1a1.6,1.6,0,0,1,3.19,0v4.75h8.42a1.29,1.29,0,0,1,1.46,1.46,1.31,1.31,0,0,1-1.46,1.51H179.5v5.94a49.63,49.63,0,0,1-.27,5.63h9.44a1.51,1.51,0,1,1,0,3h-8.24q2.48,9,8.6,13.08a2.09,2.09,0,0,1,1.1,1.12,1.56,1.56,0,0,1-.48,1.4,1.64,1.64,0,0,1-2.35.31m-17-21.23c-.1-.44-.29-1.15-.58-2.13a4.45,4.45,0,0,1-.14-.49,24.84,24.84,0,0,0-1.06-2.92,1.12,1.12,0,0,1,.8-1.73,1.23,1.23,0,0,1,1.68.67,45,45,0,0,1,2,6c.15.72-.19,1.2-1,1.47-1,.32-1.58,0-1.72-.89m12.8,1.24q-1.38-.48-.84-1.59c.89-2,1.7-4.07,2.44-6.07a1.37,1.37,0,0,1,2-1,1.29,1.29,0,0,1,.89,2c-.6,1.36-1,2.37-1.34,3-.11.26-.29.65-.53,1.15-.44.92-.77,1.58-1,2a1.16,1.16,0,0,1-1.6.49" style="fill:#fff"/><path d="M198.11,54.43c-.68-1.28-.06-2.07,1.86-2.4a57.61,57.61,0,0,0,14.5-4.39,29.65,29.65,0,0,0,10.46-7.89q-4.76.41-11.8,1-8.41.75-10.37.75c-1.68,0-2.63-.29-2.83-.88s.13-1.14.93-1.73a19.75,19.75,0,0,1,3-1.64c.88-.45,1.55-.78,2-1a87.11,87.11,0,0,0,10.51-6.52q-2.4.18-6.16.54c-3.61.29-5.85.42-6.74.39-1.18-.05-1.88-.39-2.08-1a1.68,1.68,0,0,1,.44-1.68,9.11,9.11,0,0,1,1.82-1.33c.47-.32.82-.56,1.06-.71a38.27,38.27,0,0,0,4.08-3.23c2.12-1.86,4-3.7,5.72-5.5.85-1,1.73-1.18,2.61-.62,1.12.71,1.2,1.55.22,2.52a73.81,73.81,0,0,1-10,8.47l13.21-.84c.32-.27.79-.65,1.42-1.15,1.26-1,2.21-1.81,2.83-2.31a1.77,1.77,0,0,1,2.44-.09c1.09.83,1.09,1.7,0,2.62a110,110,0,0,1-18.44,12.19l9.18-.67,9.17-.66c.44-.74.9-1.6,1.38-2.57A1.73,1.73,0,0,1,230.91,33c1.21.42,1.52,1.25.93,2.48a32.55,32.55,0,0,1-12.23,13.21Q212.38,53.1,201,55.44c-1.39.27-2.34-.07-2.84-1" style="fill:#fff"/><path d="M243.32,55.62a2.25,2.25,0,0,1-1.79-1.86,2,2,0,0,1,.9-1.24,20.43,20.43,0,0,0,4.39-5.59,27.61,27.61,0,0,1-3.63-7.22q-.45-1.43.75-1.86c.86-.36,1.46,0,1.82,1a21,21,0,0,0,2.44,5.05,36.51,36.51,0,0,0,2.35-9.09c.08-.67-.18-1-.8-1h-4.12l-.27.53a1.48,1.48,0,0,1-1.9.84c-1.16-.33-1.47-1-.94-2q3-5.85,5.72-11.92h-5.58a1.3,1.3,0,0,1-1.47-1.46,1.29,1.29,0,0,1,1.47-1.46h6.91a2.28,2.28,0,0,1,1.93.73,1.87,1.87,0,0,1,.06,1.93q-1.37,3.4-4.52,9.88h4.35a2.19,2.19,0,0,1,1.86.82,3.26,3.26,0,0,1,.44,2.37,50.59,50.59,0,0,1-3.24,12.55,16.43,16.43,0,0,0,7.63,4,41.45,41.45,0,0,0,9.89,1q8.14,0,11.7,0c.76,0,1.21.15,1.32.44a2.75,2.75,0,0,1-.35,1.55,1.89,1.89,0,0,1-1.95,1.24H267.87a44.3,44.3,0,0,1-10.68-1.06,18.31,18.31,0,0,1-8.15-4.3,21.52,21.52,0,0,1-4.52,5.63,2.07,2.07,0,0,1-1.2.53m23.36-5.49a1.4,1.4,0,0,1-1.6-1.56V45.43H254.93a1.2,1.2,0,0,1-1.33-1.38,1.18,1.18,0,0,1,1.33-1.33h10.15v-3.5h-8.24a1.11,1.11,0,0,1-1.24-1.28,1.09,1.09,0,0,1,1.24-1.24h8.24V33.42h-7.93a1.18,1.18,0,0,1-1.33-1.33,1.17,1.17,0,0,1,1.33-1.33h7.93V27.48H254.31c-.86,0-1.28-.45-1.28-1.33a1.13,1.13,0,0,1,1.28-1.29h10.77V21.67h-7.67c-.85,0-1.28-.44-1.28-1.33a1.14,1.14,0,0,1,1.28-1.29h7.67V17.42a1.39,1.39,0,0,1,1.6-1.55,1.37,1.37,0,0,1,1.55,1.55v1.63h7.09a2.52,2.52,0,0,1,1.86.71,2.56,2.56,0,0,1,.71,1.87v3.23h2a1.14,1.14,0,0,1,1.29,1.29,1.16,1.16,0,0,1-1.29,1.33h-2v3.36a2.44,2.44,0,0,1-2.57,2.58h-7.09V36.7h8.86a1.1,1.1,0,0,1,1.25,1.24,1.12,1.12,0,0,1-1.25,1.28h-8.86v3.5h10.68a1.18,1.18,0,0,1,1.33,1.33c0,.92-.44,1.38-1.33,1.38H268.23v3.14a1.38,1.38,0,0,1-1.55,1.56m1.55-25.27h6.52V22.6a.83.83,0,0,0-.94-.93h-5.58Zm0,5.9h5.58a.83.83,0,0,0,.94-.93V27.48h-6.52Z" style="fill:#fff"/><path d="M289,54.43c-.68-1.28-.06-2.07,1.86-2.4a57.48,57.48,0,0,0,14.5-4.39,29.65,29.65,0,0,0,10.46-7.89c-3.17.27-7.09.6-11.79,1-5.61.5-9.08.75-10.37.75-1.69,0-2.63-.29-2.84-.88s.13-1.14.93-1.73a20.29,20.29,0,0,1,3-1.64c.89-.45,1.55-.78,2-1a87.11,87.11,0,0,0,10.51-6.52q-2.4.18-6.16.54-5.4.43-6.74.39c-1.18-.05-1.88-.39-2.08-1a1.68,1.68,0,0,1,.44-1.68,9.43,9.43,0,0,1,1.82-1.33l1.07-.71a37.39,37.39,0,0,0,4.07-3.23c2.13-1.86,4-3.7,5.72-5.5.85-1,1.73-1.18,2.61-.62,1.13.71,1.2,1.55.23,2.52a73.86,73.86,0,0,1-10,8.47l13.21-.84,1.42-1.15,2.83-2.31a1.77,1.77,0,0,1,2.44-.09c1.1.83,1.1,1.7,0,2.62a109.88,109.88,0,0,1-18.43,12.19l9.17-.67,9.18-.66c.44-.74.9-1.6,1.37-2.57A1.73,1.73,0,0,1,321.77,33c1.21.42,1.52,1.25.93,2.48a32.48,32.48,0,0,1-12.23,13.21q-7.22,4.44-18.66,6.78c-1.39.27-2.33-.07-2.84-1" style="fill:#fff"/><path d="M332.72,32.66c-.86-.85-.77-1.68.26-2.48a39.89,39.89,0,0,0,5.85-6,38.51,38.51,0,0,0,4.52-7.26A1.38,1.38,0,0,1,345.3,16c1.07.3,1.36,1,.89,2a.44.44,0,0,1-.07.17,2.22,2.22,0,0,1-.11.22,97.77,97.77,0,0,1,9.49,10.91,1.31,1.31,0,0,1,.26,1,2.25,2.25,0,0,1-.66.89,2.51,2.51,0,0,1-1.11.71c-.32,0-.63-.18-.93-.62A118.48,118.48,0,0,0,344.6,21.1,43.73,43.73,0,0,1,335,32.71a1.48,1.48,0,0,1-2.26-.05m9.21,22.69c-2.12,0-3.57-.32-4.34-1s-1.15-1.93-1.15-3.86V34.21A2.44,2.44,0,0,1,339,31.64h10.68a2,2,0,0,1,1.87,1A6.65,6.65,0,0,1,352,36.3q-.32,4-.66,5.89a5.23,5.23,0,0,1-1,2.48,3.8,3.8,0,0,1-2.48,1.16c-.41,0-1.33,0-2.75,0-1-.06-1.65-.46-1.86-1.2-.32-1.15.3-1.66,1.86-1.55h1.37a1.73,1.73,0,0,0,1.29-.4c.5-.65.89-2.8,1.15-6.47a3,3,0,0,0-.13-1.33.68.68,0,0,0-.66-.35h-7.68a.82.82,0,0,0-.92.93v15c0,.83.16,1.36.48,1.6a4.1,4.1,0,0,0,2.13.36h7.63a2.22,2.22,0,0,0,1.59-.49,3.63,3.63,0,0,0,.71-1.91,5.7,5.7,0,0,1,.53-2.21c.39-.77.86-1,1.42-.8.38.14.66.57.84,1.28a4.51,4.51,0,0,1,.13,1.69c-.26,2.07-.75,3.47-1.46,4.21a4.75,4.75,0,0,1-3.54,1.1ZM359.8,45.12a1.38,1.38,0,0,1-1.56-1.55V22.25a1.56,1.56,0,0,1,3.11,0V43.57a1.37,1.37,0,0,1-1.55,1.55m2.35,10.72a4,4,0,0,1-1.51-.26,1.79,1.79,0,0,1-1-1,1.12,1.12,0,0,1,.35-1.46,3.36,3.36,0,0,1,1.91-.35c2.1,0,3.34,0,3.73,0q1.14,0,1.14-1.11V17.81a1.6,1.6,0,0,1,3.2,0V51.63a5,5,0,0,1-.49,2.44,2.78,2.78,0,0,1-1.51,1.2,18.69,18.69,0,0,1-5.8.57" style="fill:#fff"/><path d="M392.51,56.06h-.8a1.88,1.88,0,0,1-1.95-1.28c-.38-1.27.29-1.86,2-1.77.35,0,.84,0,1.46,0a4.56,4.56,0,0,0,3-.84A5,5,0,0,0,398,49.06a12,12,0,0,0-.22-5.05,51.73,51.73,0,0,1-7.89,5.32,63,63,0,0,1-8.91,4.17,1.53,1.53,0,0,1-2-.72,1.47,1.47,0,0,1-.31-1.35c.14-.34.56-.61,1.24-.82a54.76,54.76,0,0,0,9.3-4.12,36.87,36.87,0,0,0,7.58-5.36,19.13,19.13,0,0,0-1.5-2.84,57,57,0,0,1-6,3.77,68.81,68.81,0,0,1-6.74,3.15,1.47,1.47,0,0,1-1.95-.58c-.38-.56-.51-1-.38-1.31a1.79,1.79,0,0,1,1.18-.77,50.34,50.34,0,0,0,6.74-2.84,33.93,33.93,0,0,0,5.67-3.41,25.4,25.4,0,0,0-2-2,60.8,60.8,0,0,1-9.48,3.81,1.6,1.6,0,0,1-2-.62c-.73-1-.44-1.72.89-2.08a46.68,46.68,0,0,0,13.25-5.63h-7.93a1.26,1.26,0,0,1-1.42-1.42A1.25,1.25,0,0,1,386.48,27h21.67a1.25,1.25,0,0,1,1.42,1.41,1.25,1.25,0,0,1-1.42,1.42h-6.29a42.42,42.42,0,0,0,2.79,7.4,60,60,0,0,0,7-5,1.45,1.45,0,0,1,2.17.09q1.34,1.2,0,2.31A87.32,87.32,0,0,1,406,39.71a24.69,24.69,0,0,0,9.17,9c1.39.62,1.66,1.49.8,2.61a1.7,1.7,0,0,1-2.39.49Q403.1,46,399,29.78h-.09a30.11,30.11,0,0,1-4.48,3.1,20.67,20.67,0,0,1,5.77,8.21,17,17,0,0,1,1.1,8.15q-.48,3.81-2.7,5.36a6.21,6.21,0,0,1-2.13,1.15,8.66,8.66,0,0,1-2.52.31,10.83,10.83,0,0,1-1.42,0M381,28.19a1.4,1.4,0,0,1-1.59-1.6V22a2.55,2.55,0,0,1,.7-1.87,2.52,2.52,0,0,1,1.86-.71h13.74V17.19a1.64,1.64,0,1,1,3.28,0v2.26h14.1a2.52,2.52,0,0,1,1.86.71,2.56,2.56,0,0,1,.71,1.87v4.52a1.45,1.45,0,0,1-1.64,1.64,1.48,1.48,0,0,1-1.69-1.64V23.44a.82.82,0,0,0-.93-.93H383.56a.83.83,0,0,0-.94.93v3.15a1.41,1.41,0,0,1-1.59,1.6" style="fill:#fff"/><path d="M427.26,54a2.52,2.52,0,0,1-1.86-.71,2.48,2.48,0,0,1-.71-1.86V20.16a2.44,2.44,0,0,1,2.57-2.57h31.29a2.44,2.44,0,0,1,2.57,2.57V51.41A2.44,2.44,0,0,1,458.55,54Zm1.55-3.1h28.05a.83.83,0,0,0,.94-.93V21.63a.83.83,0,0,0-.94-.93H428.81a.82.82,0,0,0-.93.93V50a.82.82,0,0,0,.93.93m1.2-2.22q-1-1.45,1.2-2.34a8.88,8.88,0,0,0,4.11-4.22,18.74,18.74,0,0,0,1.42-6.65H431A1.23,1.23,0,0,1,429.65,34,1.22,1.22,0,0,1,431,32.66h23.44A1.22,1.22,0,0,1,455.85,34a1.24,1.24,0,0,1-1.38,1.41h-6.82v9c0,.51.07.82.22,1a1.72,1.72,0,0,0,1,.2h3.59q.79,0,1-1a4.84,4.84,0,0,1,.53-2c.35-.65.8-.86,1.33-.62s.84,1.12.75,2.57a5.92,5.92,0,0,1-1,3,2.94,2.94,0,0,1-2.28.82h-4.26c-1.51,0-2.5-.26-3-.78a4.53,4.53,0,0,1-.73-3v-9h-5.05a22.58,22.58,0,0,1-1.87,8.34A11.28,11.28,0,0,1,432.31,49c-1.06.45-1.83.34-2.3-.31m3.81-20.83a1.19,1.19,0,0,1-1.33-1.37,1.17,1.17,0,0,1,1.33-1.33H452a1.18,1.18,0,0,1,1.33,1.33A1.2,1.2,0,0,1,452,27.83Z" style="fill:#fff"/><path d="M108.59,74.49a4.7,4.7,0,0,1-3.1-1.11.51.51,0,0,1,0-.78.53.53,0,0,1,.86,0,3.68,3.68,0,0,0,2.3.82,2.46,2.46,0,0,0,1.53-.44,1.46,1.46,0,0,0,.56-1.19,1.43,1.43,0,0,0-.47-1.12A5.44,5.44,0,0,0,109,70l-.72-.32-.72-.31a2.79,2.79,0,0,1-2-2.56,2.38,2.38,0,0,1,.89-1.9,3.4,3.4,0,0,1,2.26-.75,4,4,0,0,1,2.59.93.44.44,0,0,1,0,.69.49.49,0,0,1-.77.08,3.14,3.14,0,0,0-1.85-.6,2.18,2.18,0,0,0-1.36.4,1.3,1.3,0,0,0-.51,1.07,1.35,1.35,0,0,0,.53,1.08,5.72,5.72,0,0,0,1.12.58l1.43.61a4.15,4.15,0,0,1,1.45,1,2.44,2.44,0,0,1,.6,1.7,2.51,2.51,0,0,1-.91,2,3.66,3.66,0,0,1-2.48.83" style="fill:#fff"/><path d="M116.61,74.31c-.43,0-.64-.2-.64-.62V65.4h-2.49a.53.53,0,0,1,0-1.06h6.24a.53.53,0,0,1,0,1.06h-2.49v8.29a.55.55,0,0,1-.62.62" style="fill:#fff"/><path d="M122.92,74.31a.56.56,0,0,1-.64-.62V65.13a.75.75,0,0,1,.79-.79h2.34c2.32,0,3.48.94,3.48,2.8a2.81,2.81,0,0,1-.61,1.87,3.12,3.12,0,0,1-1.65.94l2.14,3.63a.56.56,0,0,1,.08.54.55.55,0,0,1-.5.19h0a1,1,0,0,1-.82-.47l-2.15-3.76h-1.79v3.61a.55.55,0,0,1-.63.62m.63-5.25h1.67c1.61,0,2.42-.64,2.42-1.92a1.59,1.59,0,0,0-.62-1.39,3.29,3.29,0,0,0-1.8-.39h-1.67Z" style="fill:#fff"/><path d="M130.57,74.31c-.52,0-.7-.24-.53-.73L133,64.94a.89.89,0,0,1,.32-.44.91.91,0,0,1,.51-.16H134a.91.91,0,0,1,.51.16.93.93,0,0,1,.31.44l2.93,8.61c.18.51,0,.76-.54.76a.67.67,0,0,1-.7-.51l-.79-2.53H132l-.82,2.55a.61.61,0,0,1-.65.49m1.78-4h3l-.48-1.52c-.27-.85-.6-2-1-3.38h-.06c-.24.93-.57,2-1,3.38Z" style="fill:#fff"/><path d="M140.25,74.31a.56.56,0,0,1-.64-.62V65a.56.56,0,0,1,.64-.63.56.56,0,0,1,.63.63v8.72a.55.55,0,0,1-.63.62" style="fill:#fff"/><path d="M146.57,74.31c-.43,0-.64-.2-.64-.62V65.4h-2.49a.53.53,0,0,1,0-1.06h6.24a.53.53,0,0,1,0,1.06h-2.49v8.29a.54.54,0,0,1-.62.62" style="fill:#fff"/><path d="M156.17,74.31a.56.56,0,0,1-.64-.62V65.13a.75.75,0,0,1,.79-.79h2.34c2.33,0,3.49.94,3.49,2.8a2.81,2.81,0,0,1-.62,1.87,3.09,3.09,0,0,1-1.64.94L162,73.58a.56.56,0,0,1,.08.54c-.08.13-.24.19-.5.19h0a.9.9,0,0,1-.47-.13.86.86,0,0,1-.34-.34l-2.15-3.76h-1.8v3.61a.55.55,0,0,1-.63.62m.63-5.25h1.67q2.43,0,2.43-1.92a1.58,1.58,0,0,0-.63-1.39,3.25,3.25,0,0,0-1.8-.39H156.8Z" style="fill:#fff"/><path d="M168,74.49a3.36,3.36,0,0,1-2.55-.95,4.68,4.68,0,0,1-1-3.35V65a.56.56,0,0,1,.64-.63.55.55,0,0,1,.62.63v5.26c0,2.11.78,3.16,2.32,3.16s2.38-1,2.38-3.16V64.94a.61.61,0,0,1,1.21,0v5.25q0,4.31-3.59,4.3" style="fill:#fff"/><path d="M175.11,74.31a.56.56,0,0,1-.64-.62V65.13a.75.75,0,0,1,.79-.79h2.34c2.32,0,3.49.94,3.49,2.8a2.81,2.81,0,0,1-.62,1.87,3.13,3.13,0,0,1-1.64.94L181,73.58a.56.56,0,0,1,.08.54c-.08.13-.24.19-.5.19h0a.9.9,0,0,1-.47-.13,1,1,0,0,1-.35-.34l-2.15-3.76h-1.79v3.61a.55.55,0,0,1-.63.62m.63-5.25h1.67c1.62,0,2.42-.64,2.42-1.92a1.59,1.59,0,0,0-.62-1.39,3.25,3.25,0,0,0-1.8-.39h-1.67Z" style="fill:#fff"/><path d="M182.76,74.31c-.52,0-.69-.24-.53-.73l2.94-8.64a.89.89,0,0,1,.32-.44.91.91,0,0,1,.51-.16h.15a.91.91,0,0,1,.51.16.89.89,0,0,1,.32.44l2.92,8.61c.18.51,0,.76-.54.76a.66.66,0,0,1-.69-.51l-.79-2.53h-3.65l-.82,2.55a.61.61,0,0,1-.65.49m1.78-4h3l-.47-1.52c-.28-.85-.61-2-1-3.38H186c-.25.93-.58,2-1,3.38Z" style="fill:#fff"/><path d="M192.6,74.31a.73.73,0,0,1-.79-.79V65a.56.56,0,0,1,.64-.63.55.55,0,0,1,.62.63v8.27h3.83a.54.54,0,0,1,0,1.07h-4.3Z" style="fill:#fff"/><path d="M207.9,74.49a3.91,3.91,0,0,1-3.1-1.36,6.39,6.39,0,0,1,0-7.59A4,4,0,0,1,208,64.15a3.54,3.54,0,0,1,2.43.94.44.44,0,0,1,0,.67.48.48,0,0,1-.79,0,2.63,2.63,0,0,0-1.62-.56,2.75,2.75,0,0,0-2.28,1.1,4.59,4.59,0,0,0-.86,2.94,4.92,4.92,0,0,0,.83,3,2.72,2.72,0,0,0,2.27,1.1,2.91,2.91,0,0,0,1.89-.71.49.49,0,0,1,.81,0,.5.5,0,0,1,0,.73,3.86,3.86,0,0,1-2.72,1.07" style="fill:#fff"/><path d="M216.31,74.49a3.8,3.8,0,0,1-3.07-1.4,5.76,5.76,0,0,1-1.19-3.8,5.66,5.66,0,0,1,1.19-3.77,4.12,4.12,0,0,1,6.14,0,6.61,6.61,0,0,1,0,7.57,3.84,3.84,0,0,1-3.07,1.4m0-1.1a2.52,2.52,0,0,0,2.15-1.12,4.94,4.94,0,0,0,.81-3,4.85,4.85,0,0,0-.81-3,2.69,2.69,0,0,0-4.32,0,5.83,5.83,0,0,0,0,5.93,2.52,2.52,0,0,0,2.15,1.12" style="fill:#fff"/><path d="M223.56,74.31a.53.53,0,0,1-.6-.59V65a.57.57,0,0,1,.23-.49.89.89,0,0,1,.56-.16.78.78,0,0,1,.73.38l3.42,5.91L229,72.68H229c0-.12,0-.3-.05-.54q-.12-1.77-.12-2.61V64.94a.6.6,0,1,1,1.2,0v8.74a.58.58,0,0,1-.23.47.88.88,0,0,1-.55.16.8.8,0,0,1-.73-.36L225.13,68,224.06,66H224c0,.19,0,.48.05.87.06,1,.1,1.75.1,2.24v4.65a.53.53,0,0,1-.6.59" style="fill:#fff"/><path d="M235.8,74.49a4.7,4.7,0,0,1-3.1-1.11.51.51,0,0,1,0-.78.53.53,0,0,1,.86,0,3.68,3.68,0,0,0,2.3.82,2.46,2.46,0,0,0,1.53-.44,1.46,1.46,0,0,0,.56-1.19,1.43,1.43,0,0,0-.47-1.12,5.44,5.44,0,0,0-1.19-.65l-.72-.32-.72-.31a2.79,2.79,0,0,1-2-2.56,2.38,2.38,0,0,1,.89-1.9,3.4,3.4,0,0,1,2.25-.75,4,4,0,0,1,2.6.93.44.44,0,0,1,0,.69.5.5,0,0,1-.78.08,3.1,3.1,0,0,0-1.85-.6,2.17,2.17,0,0,0-1.35.4,1.3,1.3,0,0,0-.51,1.07,1.35,1.35,0,0,0,.53,1.08,5.72,5.72,0,0,0,1.12.58l1.43.61a4.15,4.15,0,0,1,1.45,1,2.44,2.44,0,0,1,.6,1.7,2.54,2.54,0,0,1-.91,2,3.66,3.66,0,0,1-2.48.83" style="fill:#fff"/><path d="M243.82,74.31c-.43,0-.64-.2-.64-.62V65.4h-2.49a.53.53,0,0,1,0-1.06h6.24a.53.53,0,0,1,0,1.06h-2.49v8.29a.55.55,0,0,1-.62.62" style="fill:#fff"/><path d="M250.13,74.31a.56.56,0,0,1-.64-.62V65.13a.75.75,0,0,1,.79-.79h2.34c2.32,0,3.48.94,3.48,2.8a2.81,2.81,0,0,1-.61,1.87,3.12,3.12,0,0,1-1.65.94L256,73.58a.56.56,0,0,1,.08.54.55.55,0,0,1-.5.19h0a1,1,0,0,1-.82-.47l-2.15-3.76h-1.79v3.61a.55.55,0,0,1-.63.62m.63-5.25h1.67c1.61,0,2.42-.64,2.42-1.92a1.59,1.59,0,0,0-.62-1.39,3.29,3.29,0,0,0-1.8-.39h-1.67Z" style="fill:#fff"/><path d="M261.91,74.49a3.33,3.33,0,0,1-2.54-.95,4.68,4.68,0,0,1-1-3.35V65a.56.56,0,0,1,.64-.63.56.56,0,0,1,.63.63v5.26c0,2.11.77,3.16,2.31,3.16s2.38-1,2.38-3.16V64.94a.54.54,0,0,1,.62-.6.53.53,0,0,1,.6.6v5.25q0,4.31-3.6,4.3" style="fill:#fff"/><path d="M272.2,74.49a3.91,3.91,0,0,1-3.1-1.36,6.39,6.39,0,0,1,0-7.59,4,4,0,0,1,3.16-1.39,3.52,3.52,0,0,1,2.43.94.44.44,0,0,1,0,.67.48.48,0,0,1-.79,0,2.63,2.63,0,0,0-1.62-.56,2.75,2.75,0,0,0-2.28,1.1,4.65,4.65,0,0,0-.86,2.94,4.86,4.86,0,0,0,.84,3,2.69,2.69,0,0,0,2.26,1.1,2.91,2.91,0,0,0,1.89-.71.54.54,0,1,1,.78.74,3.86,3.86,0,0,1-2.72,1.07" style="fill:#fff"/><path d="M279.81,74.31c-.43,0-.64-.2-.64-.62V65.4h-2.5a.53.53,0,1,1,0-1.06h6.25a.53.53,0,1,1,0,1.06h-2.49v8.29a.55.55,0,0,1-.62.62" style="fill:#fff"/><path d="M286.12,74.31c-.43,0-.64-.2-.64-.62V65a.56.56,0,0,1,.64-.63.55.55,0,0,1,.62.63v8.72a.54.54,0,0,1-.62.62" style="fill:#fff"/><path d="M293.4,74.49a3.78,3.78,0,0,1-3.06-1.4,5.71,5.71,0,0,1-1.2-3.8,5.61,5.61,0,0,1,1.2-3.77,4.11,4.11,0,0,1,6.13,0,6.61,6.61,0,0,1,0,7.57,3.84,3.84,0,0,1-3.07,1.4m0-1.1a2.51,2.51,0,0,0,2.15-1.12,4.94,4.94,0,0,0,.81-3,4.85,4.85,0,0,0-.81-3,2.69,2.69,0,0,0-4.32,0,5.83,5.83,0,0,0,0,5.93,2.52,2.52,0,0,0,2.15,1.12" style="fill:#fff"/><path d="M300.65,74.31a.53.53,0,0,1-.6-.59V65a.59.59,0,0,1,.23-.49.91.91,0,0,1,.56-.16.78.78,0,0,1,.73.38L305,70.63l1.06,2.05h.07c0-.12,0-.3,0-.54-.09-1.18-.12-2-.12-2.61V64.94a.6.6,0,1,1,1.19,0v8.74a.56.56,0,0,1-.23.47.87.87,0,0,1-.54.16.82.82,0,0,1-.74-.36L302.23,68,301.15,66h0c0,.19,0,.48,0,.87.07,1,.1,1.75.1,2.24v4.65a.53.53,0,0,1-.6.59" style="fill:#fff"/><path d="M314,74.31a.6.6,0,0,1-.44-.16.61.61,0,0,1-.16-.43V65.13a.75.75,0,0,1,.79-.79h1.71a4.57,4.57,0,0,1,3.5,1.29,5.12,5.12,0,0,1,1.21,3.66,5.25,5.25,0,0,1-1.2,3.69A4.4,4.4,0,0,1,316,74.31h-2Zm.67-1h1.13a3.25,3.25,0,0,0,2.63-1,4.41,4.41,0,0,0,.88-2.94,4.29,4.29,0,0,0-.88-2.91,3.3,3.3,0,0,0-2.63-1h-1.13v7.92Z" style="fill:#fff"/><path d="M323.79,74.31a.8.8,0,0,1-.57-.21.82.82,0,0,1-.22-.58V65.13a.75.75,0,0,1,.79-.79h4.44a.53.53,0,1,1,0,1.06h-4v3.13h3.25a.47.47,0,0,1,.53.53.48.48,0,0,1-.53.55h-3.25v3.63h4.11a.54.54,0,0,1,0,1.07h-4.59Z" style="fill:#fff"/><path d="M334,74.49a4.72,4.72,0,0,1-3.1-1.11.52.52,0,0,1,0-.78.53.53,0,0,1,.86,0,3.7,3.7,0,0,0,2.3.82,2.46,2.46,0,0,0,1.53-.44,1.46,1.46,0,0,0,.56-1.19,1.43,1.43,0,0,0-.47-1.12,5.44,5.44,0,0,0-1.19-.65l-.72-.32-.72-.31a2.79,2.79,0,0,1-2-2.56,2.38,2.38,0,0,1,.89-1.9,3.4,3.4,0,0,1,2.26-.75,4.06,4.06,0,0,1,2.6.93.45.45,0,0,1,0,.69.49.49,0,0,1-.77.08,3.12,3.12,0,0,0-1.85-.6,2.18,2.18,0,0,0-1.36.4,1.3,1.3,0,0,0-.51,1.07,1.35,1.35,0,0,0,.53,1.08,5.72,5.72,0,0,0,1.12.58l1.43.61a4.05,4.05,0,0,1,1.45,1,2.44,2.44,0,0,1,.6,1.7,2.51,2.51,0,0,1-.91,2,3.64,3.64,0,0,1-2.48.83" style="fill:#fff"/><path d="M340.26,74.31c-.43,0-.64-.2-.64-.62V65a.56.56,0,0,1,.64-.63.55.55,0,0,1,.62.63v8.72a.55.55,0,0,1-.62.62" style="fill:#fff"/><path d="M347.77,74.49a4.13,4.13,0,0,1-3.23-1.36,6.29,6.29,0,0,1,0-7.59,4.22,4.22,0,0,1,3.28-1.39,3.77,3.77,0,0,1,2.57.95c.2.2.19.42,0,.67a.46.46,0,0,1-.76.07,2.78,2.78,0,0,0-1.77-.59,2.93,2.93,0,0,0-2.4,1.09,4.5,4.5,0,0,0-.9,3,4.7,4.7,0,0,0,.86,3,3,3,0,0,0,2.46,1.1,2.56,2.56,0,0,0,1.81-.59V70.19h-1.59a.53.53,0,0,1,0-1h2a.76.76,0,0,1,.56.21.75.75,0,0,1,.21.57v3a.88.88,0,0,1-.25.65,4.33,4.33,0,0,1-2.83.91" style="fill:#fff"/><path d="M354.07,74.31a.53.53,0,0,1-.6-.59V65a.57.57,0,0,1,.23-.49.89.89,0,0,1,.56-.16.79.79,0,0,1,.73.38l3.42,5.91,1.06,2.05h.07c0-.12,0-.3-.05-.54q-.12-1.77-.12-2.61V64.94a.6.6,0,0,1,1.2,0v8.74a.58.58,0,0,1-.23.47.9.9,0,0,1-.55.16.8.8,0,0,1-.73-.36L355.64,68,354.57,66h-.06q0,.29.06.87c.06,1,.09,1.75.09,2.24v4.65a.52.52,0,0,1-.59.59" style="fill:#fff"/><path d="M368.79,74.31c-.52,0-.69-.24-.53-.73l2.94-8.64a.89.89,0,0,1,.32-.44.91.91,0,0,1,.51-.16h.15a.91.91,0,0,1,.51.16,1,1,0,0,1,.32.44l2.92,8.61c.18.51,0,.76-.54.76a.67.67,0,0,1-.7-.51l-.79-2.53h-3.64l-.82,2.55a.61.61,0,0,1-.65.49m1.78-4h3l-.47-1.52c-.28-.85-.61-2-1-3.38h-.06c-.24.93-.57,2-1,3.38Z" style="fill:#fff"/><path d="M378.43,74.31a.52.52,0,0,1-.59-.59V65a.57.57,0,0,1,.23-.49.88.88,0,0,1,.55-.16.79.79,0,0,1,.74.38l3.42,5.91,1.06,2.05h.06c0-.12,0-.3,0-.54q-.12-1.77-.12-2.61V64.94a.6.6,0,1,1,1.2,0v8.74a.58.58,0,0,1-.23.47.9.9,0,0,1-.55.16.8.8,0,0,1-.73-.36L380,68,378.94,66h-.06q0,.29.06.87c.06,1,.09,1.75.09,2.24v4.65a.53.53,0,0,1-.6.59" style="fill:#fff"/><path d="M388.5,74.31a.55.55,0,0,1-.59-.59V65.13a.74.74,0,0,1,.78-.79h1.72a4.58,4.58,0,0,1,3.5,1.29,5.16,5.16,0,0,1,1.21,3.66,5.25,5.25,0,0,1-1.2,3.69,4.43,4.43,0,0,1-3.46,1.33h-2Zm.67-1h1.13a3.29,3.29,0,0,0,2.64-1,4.41,4.41,0,0,0,.87-2.94,4.29,4.29,0,0,0-.87-2.91,3.33,3.33,0,0,0-2.64-1h-1.13v7.92Z" style="fill:#fff"/><path d="M404.56,74.49a3.91,3.91,0,0,1-3.1-1.36,6.39,6.39,0,0,1,0-7.59,4,4,0,0,1,3.16-1.39,3.54,3.54,0,0,1,2.43.94.44.44,0,0,1,0,.67.48.48,0,0,1-.79,0,2.63,2.63,0,0,0-1.62-.56,2.75,2.75,0,0,0-2.28,1.1,4.65,4.65,0,0,0-.86,2.94,4.86,4.86,0,0,0,.84,3,2.69,2.69,0,0,0,2.26,1.1,2.91,2.91,0,0,0,1.89-.71.49.49,0,0,1,.81,0,.5.5,0,0,1,0,.73,3.86,3.86,0,0,1-2.72,1.07" style="fill:#fff"/><path d="M410.35,74.31a.55.55,0,0,1-.63-.62V65.13a.74.74,0,0,1,.78-.79h2.34c2.33,0,3.49.94,3.49,2.8a2.86,2.86,0,0,1-.61,1.87,3.12,3.12,0,0,1-1.65.94l2.14,3.63c.12.23.15.4.07.54s-.24.19-.5.19h0a.9.9,0,0,1-.47-.13.92.92,0,0,1-.34-.34l-2.15-3.76H411v3.61a.55.55,0,0,1-.63.62m.63-5.25h1.67q2.43,0,2.43-1.92a1.58,1.58,0,0,0-.63-1.39,3.25,3.25,0,0,0-1.8-.39H411Z" style="fill:#fff"/><path d="M419.39,74.31a.74.74,0,0,1-.79-.79V65.13a.75.75,0,0,1,.79-.79h4.43a.53.53,0,0,1,0,1.06h-4v3.13h3.26a.47.47,0,0,1,.53.53.48.48,0,0,1-.53.55h-3.26v3.63H424a.54.54,0,0,1,0,1.07h-4.58Z" style="fill:#fff"/><path d="M426.3,74.31c-.52,0-.69-.24-.53-.73l2.94-8.64a.89.89,0,0,1,.32-.44.91.91,0,0,1,.51-.16h.15a.91.91,0,0,1,.51.16.89.89,0,0,1,.32.44l2.92,8.61c.18.51,0,.76-.54.76a.66.66,0,0,1-.69-.51l-.79-2.53h-3.65L427,73.82a.61.61,0,0,1-.65.49m1.78-4h3l-.47-1.52c-.28-.85-.61-2-1-3.38h-.05c-.25.93-.58,2-1,3.38Z" style="fill:#fff"/><path d="M437.24,74.31c-.43,0-.64-.2-.64-.62V65.4h-2.49a.53.53,0,1,1,0-1.06h6.25a.53.53,0,1,1,0,1.06h-2.5v8.29a.54.54,0,0,1-.62.62" style="fill:#fff"/><path d="M443.55,74.31a.56.56,0,0,1-.64-.62V65a.56.56,0,0,1,.64-.63.56.56,0,0,1,.63.63v8.72a.55.55,0,0,1-.63.62" style="fill:#fff"/><path d="M449.3,74.31a.39.39,0,0,1-.41-.29L446,65.09c-.16-.5,0-.75.55-.75a.64.64,0,0,1,.68.5l1.47,4.9c.1.32.23.77.39,1.36.23.83.42,1.47.57,1.93h.06c.13-.43.31-1,.54-1.85l.42-1.44,1.46-4.9a.64.64,0,0,1,.66-.5c.51,0,.69.25.53.73l-2.74,8.63a.8.8,0,0,1-.83.61h-.5Z" style="fill:#fff"/><path d="M456,74.31a.8.8,0,0,1-.57-.21.82.82,0,0,1-.22-.58V65.13a.75.75,0,0,1,.79-.79h4.44a.53.53,0,1,1,0,1.06h-4v3.13h3.25a.47.47,0,0,1,.53.53.48.48,0,0,1-.53.55h-3.25v3.63h4.11a.54.54,0,0,1,0,1.07H456Z" style="fill:#fff"/></g></svg>