<!-- Generated by IcoMoon.io -->
<svg version="1.1" xmlns="http://www.w3.org/2000/svg" width="32" height="32" viewBox="0 0 32 32">
<title>social-line-1</title>
<path d="M9.2 5.333c-2.125 0-3.867 1.742-3.867 3.866v13.6c0 2.125 1.742 3.866 3.867 3.866h13.6c2.125 0 3.866-1.742 3.866-3.866v-13.6c0-2.125-1.742-3.867-3.866-3.867h-13.6zM16 7.733c4.871 0 8.834 3.213 8.834 7.167 0 1.583-0.621 3.029-1.9 4.434-1.854 2.134-5.992 4.738-6.934 5.134s-0.804-0.275-0.766-0.5c0.021-0.134 0.134-0.734 0.134-0.734 0.029-0.225 0.058-0.575-0.034-0.8-0.1-0.246-0.479-0.371-0.766-0.434-4.246-0.562-7.4-3.558-7.4-7.1 0-3.954 3.962-7.167 8.834-7.167h-0.001zM10.066 12.8c-0.254 0-0.466 0.221-0.466 0.466v3.366c0 0.246 0.213 0.434 0.466 0.434h1.766c0.254 0 0.434-0.187 0.434-0.434s-0.179-0.466-0.434-0.466h-1.3v-2.9c0-0.246-0.213-0.466-0.466-0.466v0zM13.4 12.8c-0.254 0-0.466 0.221-0.466 0.466v3.366c0 0.246 0.213 0.434 0.466 0.434s0.466-0.187 0.466-0.434v-3.366c0-0.246-0.213-0.466-0.466-0.466zM15.366 12.8c-0.046 0-0.087 0.017-0.134 0.034-0.179 0.062-0.3 0.242-0.3 0.434v3.366c0 0.246 0.192 0.434 0.434 0.434 0.246 0 0.434-0.187 0.434-0.434v-2.1l1.734 2.366c0.083 0.113 0.196 0.166 0.334 0.166 0.046 0 0.121-0.017 0.166-0.034 0.183-0.062 0.3-0.208 0.3-0.4v-3.366c0-0.246-0.225-0.466-0.466-0.466s-0.434 0.221-0.434 0.466v2.066l-1.7-2.334c-0.083-0.113-0.229-0.2-0.366-0.2l-0.001 0.001zM19.834 12.8c-0.254 0-0.466 0.221-0.466 0.466v3.366c0 0.246 0.213 0.434 0.466 0.434h1.734c0.254 0 0.466-0.187 0.466-0.434s-0.213-0.466-0.466-0.466h-1.3v-0.766h1.3c0.254 0 0.466-0.221 0.466-0.466s-0.213-0.434-0.466-0.434h-1.3v-0.8h1.3c0.254 0 0.466-0.187 0.466-0.434s-0.213-0.466-0.466-0.466h-1.734z"></path>
</svg>
